<svg xmlns="http://www.w3.org/2000/svg" width="473.288" height="319.899" viewBox="0 0 473.288 319.899">
  <g id="baja_hindi" data-name="baja hindi" transform="translate(-324.1 -107)">
    <g id="baja_fg" data-name="baja fg" transform="translate(324.1 107)">
      <g id="Group_614" data-name="Group 614" transform="translate(0)">
        <path id="Path_170" data-name="Path 170" d="M-146.734-112.392q-.157-.161.472.724t.472.885h-4.25q-8.5.161-17,.483t-17,.483q-8.5.322-17,.161t-17-.966a151.055,151.055,0,0,1-30.382-6.118,146.733,146.733,0,0,1-27.864-11.752,156.7,156.7,0,0,1-25.975-18.031q-1.732-1.449-3.306-3.059t-2.991-3.381q.157,0-.472-.724t-.472-1.046a3.418,3.418,0,0,1,.945.483,5.183,5.183,0,0,0,.787.644l1.732,1.449.157.161.945.8,3.463,2.576q1.732,1.288,3.542,2.5t3.542,2.5a.45.45,0,0,0,.315.161l.315.322.787.483,1.574.966q.787.483,1.653.966A11.3,11.3,0,0,1-288.1-139.6l6.927,3.7q3.463,1.771,7.005,3.381t7.163,3.059a163.571,163.571,0,0,0,29.6,8.211,163.934,163.934,0,0,0,17.631,1.932q8.186.483,16.293.483t16.293-.322q8.186-.322,16.293-.563t16.293-.241a1.337,1.337,0,0,1,.866.322,8.652,8.652,0,0,1,.708.644q.945.8,1.732,1.61l1.574,1.61q.787.8,1.5,1.61T-146.734-112.392Zm35.577,29.783q.315,5.152.394,10.545a80.841,80.841,0,0,1-.551,10.706,62.756,62.756,0,0,1-2.125,10.384,38.248,38.248,0,0,1-4.329,9.579,31.089,31.089,0,0,1-5.352,6.2,17.8,17.8,0,0,1-7.241,3.944,13.55,13.55,0,0,1-5.667.4,37.319,37.319,0,0,1-5.51-1.207A57.387,57.387,0,0,1-148.7-34.15a22.675,22.675,0,0,1-6.533-3.7,24.705,24.705,0,0,1-6.061-7.728,46.7,46.7,0,0,1-3.542-9.338,61.7,61.7,0,0,1-1.1-21.09,47.2,47.2,0,0,1,1.968-9.257,41.878,41.878,0,0,1,3.936-8.855,26.867,26.867,0,0,1,6.061-7.084,22.127,22.127,0,0,1,8.343-4.266,14.122,14.122,0,0,1,4.487-.563,41.011,41.011,0,0,1,4.487.4q4.723.966,9.445,2.415,1.417.483,2.912.966a11.853,11.853,0,0,1,2.755,1.288,19.41,19.41,0,0,1,9.918,12.718.141.141,0,0,1,.157.161q0,1.288.079,2.737t.236,2.737M-131.779-42.2A33.691,33.691,0,0,0-125.8-53.791l-1.259-.483a3.94,3.94,0,0,0-.945-.483,1.968,1.968,0,0,1-.787-.483q-2.676-3.7-5.431-7.325t-5.589-7.164l-11.177-14.65a43.731,43.731,0,0,0-2.44,9.257,63.769,63.769,0,0,0-.708,9.418A68.448,68.448,0,0,0-152.559-51.3a31.453,31.453,0,0,0,5.982,12.96,13.738,13.738,0,0,0,3.463,3.542.141.141,0,0,1,.157.161l2.519-.644a18.912,18.912,0,0,0,4.8-2.9,25.2,25.2,0,0,0,3.857-4.025m-4.408-59.084a20.811,20.811,0,0,0-5.825,3.622,29.5,29.5,0,0,0-4.723,5.232l-.472.644a.957.957,0,0,1,.63.644l11.02,14.489q2.991,3.7,5.9,7.486t5.746,7.486a12.237,12.237,0,0,0,.236-1.207,10.1,10.1,0,0,0,.079-1.368,90.5,90.5,0,0,0,.551-13.6q-.236-6.842-.708-13.6a17.569,17.569,0,0,0-1.338-3.864,25.3,25.3,0,0,0-2.125-3.542,20.222,20.222,0,0,0-3.778-3.542A13.346,13.346,0,0,0-136.187-101.284Zm44.55-11.108q-.157-.161.551.724t.394.885h-19.993v69.065q0,4.83.157,9.5a28.619,28.619,0,0,1-.236,3.622,6.993,6.993,0,0,1-1.5,3.461,7.99,7.99,0,0,1-6.3,3.542q1.732.8,3.306,1.368t3.306,1.207a5.314,5.314,0,0,1,1.023.322q.866.322.708.644,0,.322-.787.161a6.5,6.5,0,0,0-1.1-.161,44.879,44.879,0,0,1-8.658-2.415l-8.658-3.381-.945-.322q-.945-.322-.787-.483a.141.141,0,0,1,.157-.161q0-.161.315-.161.787-.161,1.417-.241a3.825,3.825,0,0,0,1.259-.4,8.293,8.293,0,0,0,5.037-6.279,22.413,22.413,0,0,0,.236-4.186q-.079-2.093-.079-4.186v-70.514h-10.075a1.337,1.337,0,0,1-.866-.322,8.66,8.66,0,0,1-.708-.644l-3.306-3.22q-.787-.8-1.5-1.61a15.425,15.425,0,0,1-1.338-1.771q0,.161-.63-.724t-.315-.885H-99.35a1.511,1.511,0,0,1,.787.322,5.184,5.184,0,0,1,.787.644,22.579,22.579,0,0,1,3.148,3.22A24.425,24.425,0,0,1-91.636-112.392Zm24.558,0q-.157-.161.551.724t.394.885H-86.126v69.065q0,4.83.157,9.5a28.617,28.617,0,0,1-.236,3.622,6.993,6.993,0,0,1-1.5,3.461A7.99,7.99,0,0,1-94-21.593q1.732.8,3.306,1.368t3.306,1.207a5.314,5.314,0,0,1,1.023.322q.866.322.708.644,0,.322-.787.161a6.5,6.5,0,0,0-1.1-.161A44.879,44.879,0,0,1-96.2-20.466l-8.658-3.381-.945-.322q-.945-.322-.787-.483a.141.141,0,0,1,.157-.161q0-.161.315-.161.787-.161,1.417-.241a3.825,3.825,0,0,0,1.259-.4A8.293,8.293,0,0,0-98.405-31.9a22.412,22.412,0,0,0,.236-4.186q-.079-2.093-.079-4.186v-70.514h-10.075a1.337,1.337,0,0,1-.866-.322,8.654,8.654,0,0,1-.708-.644l-3.306-3.22q-.787-.8-1.5-1.61a15.42,15.42,0,0,1-1.338-1.771q0,.161-.63-.724t-.315-.885h42.189a1.511,1.511,0,0,1,.787.322,5.182,5.182,0,0,1,.787.644,22.578,22.578,0,0,1,3.148,3.22A24.422,24.422,0,0,1-67.078-112.392ZM35.4-271.774a43.975,43.975,0,0,1,8.58,18.031,48.075,48.075,0,0,1,.236,20.285,53.183,53.183,0,0,1-8.737,19.721,68.89,68.89,0,0,1-15.034,15.375A77.183,77.183,0,0,1-2.3-186.69a116.713,116.713,0,0,1-24.715,4.91,177.633,177.633,0,0,1-25.66.4q-12.987-.725-25.266-1.69-13.066-.966-26.211-1.449t-26.211.322a183.1,183.1,0,0,0-25.9,3.461,136.081,136.081,0,0,0-25.109,7.808,124.21,124.21,0,0,0-19.993,10.786,103.727,103.727,0,0,0-17.474,14.65,93.65,93.65,0,0,0-21.724,38.638,99.867,99.867,0,0,0-3.7,22.458,103.6,103.6,0,0,0,1.338,22.458,93.755,93.755,0,0,0,5.9,21.09A109.719,109.719,0,0,0-226.7-23.525a108.709,108.709,0,0,0,30.54,29.784,82.931,82.931,0,0,0,8.973,5.313q2.2,1.127,4.487,2.254a45.1,45.1,0,0,0,4.487,1.932l1.574.483q0,.161.315.241a2.109,2.109,0,0,0,.472.08,14.846,14.846,0,0,0,2.361.8.686.686,0,0,1,.315.081.686.686,0,0,0,.315.08l.945.322a6.068,6.068,0,0,0,1.259.483q.63.161-.472-.161l2.046.483h.472a4.9,4.9,0,0,0,1.417.322l1.1.161a23,23,0,0,0,2.361.483q1.1.161,2.361.322a111.047,111.047,0,0,0,24.243.563A126.139,126.139,0,0,0-113.2,16.079a119.4,119.4,0,0,0,22.2-8.694A95.949,95.949,0,0,0-71.171-6.138a70.849,70.849,0,0,0,8.265-8.211,65.117,65.117,0,0,0,6.848-9.66,54.825,54.825,0,0,0,4.8-10.786A77.528,77.528,0,0,0-48.5-46.386a123.573,123.573,0,0,0,.866-23.746q-.708-11.994-.708-23.907V-94.2h31.327a1.356,1.356,0,0,1,.787.4q.472.4.787.724l3.148,3.059L-9.3-86.634q-.157-.161.551.8t.394.966H-36.066l.63,17.548q.157,5.957,0,11.913a111.19,111.19,0,0,1-.945,11.833A71.373,71.373,0,0,1-38.9-32.058,55.514,55.514,0,0,1-43.622-21.11,65.4,65.4,0,0,1-58.892-2.757a113.252,113.252,0,0,1-19.678,13.2,126.226,126.226,0,0,1-22.669,9.1,118.389,118.389,0,0,1-24.086,4.427,113.914,113.914,0,0,1-27.391-.724,166.023,166.023,0,0,1-26.919-6.359A118.442,118.442,0,0,1-217.968-4.125,107.143,107.143,0,0,1-245.6-38.336a95.884,95.884,0,0,1-7.871-21.17,106.963,106.963,0,0,1-2.991-22.3,103.379,103.379,0,0,1,1.81-22.378,96.24,96.24,0,0,1,6.848-21.573A86.828,86.828,0,0,1-235.6-145.4a101.662,101.662,0,0,1,16.293-15.777,112.092,112.092,0,0,1,19.363-11.994,137.435,137.435,0,0,1,21.252-8.291,155.441,155.441,0,0,1,26.368-5.393,234.793,234.793,0,0,1,26.84-1.529q14.011,0,27.785,1.207t27.785,2.012a218.258,218.258,0,0,0,24.479.241,128.24,128.24,0,0,0,24.479-3.461,89.954,89.954,0,0,0,22.669-8.855,64.5,64.5,0,0,0,18.891-16.1A59.333,59.333,0,0,0,30.681-232.09a46.438,46.438,0,0,0,1.732-21.17,44.746,44.746,0,0,0-2.44-9.9,42.184,42.184,0,0,0-4.644-9.1,40.841,40.841,0,0,0-6.612-7.567,29.272,29.272,0,0,0-8.5-5.313,22.032,22.032,0,0,0-4.723-.483,33.355,33.355,0,0,0-5.667.161q-2.834.322-5.667.8a59.229,59.229,0,0,0-11.492,3.381A92.36,92.36,0,0,0-28.2-275.96,149.985,149.985,0,0,0-48.66-261.39q-9.6,8.13-19.678,15.536A128.855,128.855,0,0,1-88.645-233.7a55.162,55.162,0,0,1-22.669,5.554,56.769,56.769,0,0,1-13.853-1.368,108.971,108.971,0,0,1-13.381-3.944,49.214,49.214,0,0,1-9.445-4.83,31.151,31.151,0,0,1-7.714-7.245q-.315-.322,0-.322a1.372,1.372,0,0,1,.63.161,11.221,11.221,0,0,1,1.889.161,12.2,12.2,0,0,1,1.889.483q1.259.322,2.361.644l2.2.644a10.26,10.26,0,0,0,1.417.483,3.566,3.566,0,0,1,1.417.644,29.994,29.994,0,0,0,7.241,6.923q1.889,1.288,3.621,2.254l2.047.966a.141.141,0,0,0,.157.161h.472a.633.633,0,0,0,.472.161,15.25,15.25,0,0,0,1.968.241q1.181.081,2.125.08a39.435,39.435,0,0,0,5.038,0,35.684,35.684,0,0,0,4.88-.644,49.148,49.148,0,0,0,11.649-3.059,78.67,78.67,0,0,0,10.862-5.313A134.785,134.785,0,0,0-73.06-254.87q9.445-7.889,19.363-15.455A133.989,133.989,0,0,1-33.547-282.8,58.633,58.633,0,0,1-10.879-289a59.086,59.086,0,0,1,14.8.885,81.875,81.875,0,0,1,14.325,4.105,46.638,46.638,0,0,1,9.445,4.91,32.527,32.527,0,0,1,7.714,7.325M16.2-112.392q-.157-.161.551.724t.394.885H-73.69a1.511,1.511,0,0,1-.787-.322,5.182,5.182,0,0,1-.787-.644,22.578,22.578,0,0,1-3.148-3.22q-.787-.8-1.5-1.61t-1.5-1.771q.157.161-.551-.724t-.394-.885H8.484a1.511,1.511,0,0,1,.787.322,5.182,5.182,0,0,1,.787.644,22.579,22.579,0,0,1,3.148,3.22A24.425,24.425,0,0,1,16.2-112.392Zm-2.2,0q-.157-.161.551.724t.394.885H-5.054v69.065q0,4.83.157,9.5A28.619,28.619,0,0,1-5.133-28.6a6.993,6.993,0,0,1-1.5,3.461,7.99,7.99,0,0,1-6.3,3.542q1.732.8,3.306,1.368t3.306,1.207A5.315,5.315,0,0,1-5.29-18.7q.866.322.708.644,0,.322-.787.161a6.5,6.5,0,0,0-1.1-.161,44.88,44.88,0,0,1-8.658-2.415l-8.658-3.381-.945-.322q-.945-.322-.787-.483a.141.141,0,0,1,.157-.161q0-.161.315-.161.787-.161,1.417-.241a3.825,3.825,0,0,0,1.259-.4A8.293,8.293,0,0,0-17.333-31.9a22.416,22.416,0,0,0,.236-4.186q-.079-2.093-.079-4.186v-70.514H-27.25a1.337,1.337,0,0,1-.866-.322,8.657,8.657,0,0,1-.708-.644l-3.306-3.22q-.787-.8-1.5-1.61a15.424,15.424,0,0,1-1.338-1.771q0,.161-.63-.724t-.315-.885H6.28a1.511,1.511,0,0,1,.787.322,5.182,5.182,0,0,1,.787.644A22.579,22.579,0,0,1,11-115.773,24.425,24.425,0,0,1,13.994-112.392Zm24.558,0q-.157-.161.551.724t.394.885H19.5v69.065q0,4.83.157,9.5a28.621,28.621,0,0,1-.236,3.622,6.993,6.993,0,0,1-1.5,3.461,7.99,7.99,0,0,1-6.3,3.542q1.732.8,3.306,1.368t3.306,1.207a5.315,5.315,0,0,1,1.023.322q.866.322.708.644,0,.322-.787.161a6.5,6.5,0,0,0-1.1-.161,44.88,44.88,0,0,1-8.658-2.415L.771-23.847l-.945-.322q-.945-.322-.787-.483A.141.141,0,0,1-.8-24.813q0-.161.315-.161Q.3-25.135.928-25.215a3.825,3.825,0,0,0,1.259-.4A8.293,8.293,0,0,0,7.225-31.9a22.414,22.414,0,0,0,.236-4.186q-.079-2.093-.079-4.186v-70.514H-2.693a1.337,1.337,0,0,1-.866-.322,8.656,8.656,0,0,1-.708-.644l-3.306-3.22q-.787-.8-1.5-1.61a15.424,15.424,0,0,1-1.338-1.771q0,.161-.63-.724t-.315-.885H30.838a1.511,1.511,0,0,1,.787.322,5.182,5.182,0,0,1,.787.644,22.578,22.578,0,0,1,3.148,3.22A24.425,24.425,0,0,1,38.552-112.392ZM8.17-110.783a1.511,1.511,0,0,1-.787-.322,5.182,5.182,0,0,1-.787-.644,22.578,22.578,0,0,1-3.148-3.22q-.787-.8-1.5-1.69t-1.5-1.69l-.079-.08a5.23,5.23,0,0,1-.472-.563,4.247,4.247,0,0,1-.394-.644q-.157-.322,0-.322H56.97q4.25,0,8.5-.081t8.5.081a121.553,121.553,0,0,1,29.6,4.669,130.72,130.72,0,0,1,14.168,4.991,131.763,131.763,0,0,1,13.538,6.6A129.086,129.086,0,0,1,145.6-93.8a157.537,157.537,0,0,1,13.066,11.672l3.306,3.7q.315.322.866.966a6.16,6.16,0,0,1,.866,1.288q.157.483-.236.241a1.353,1.353,0,0,0-.551-.241q-.787-.644-1.5-1.288t-1.338-1.288a4.562,4.562,0,0,1-.787-.966h-.157l.157.161L157.721-81l-.787-.644h.315a.45.45,0,0,1-.315-.161L155.2-83.253,153.628-84.7q-.315-.161-.157,0a.141.141,0,0,1-.157-.161l-.787-.644-3.148-2.415q-5.352-3.864-11.334-7.406-3.148-1.771-6.3-3.22l-6.3-2.9a127.739,127.739,0,0,0-26.762-7.728.141.141,0,0,0,.157.161q-4.408-.8-8.737-1.207t-8.58-.563Z" transform="translate(309.54 289.127)" fill="#000"/>
      </g>
    </g>
    <g id="baja_fg-2" data-name="baja fg" transform="translate(324.1 113.302)">
      <g id="Group_614-2" data-name="Group 614" transform="translate(0 0)">
        <path id="Path_170-2" data-name="Path 170" d="M-146.734-112.392q-.157-.161.472.724t.472.885h-4.25q-8.5.161-17,.483t-17,.483q-8.5.322-17,.161t-17-.966a151.055,151.055,0,0,1-30.382-6.118,146.733,146.733,0,0,1-27.864-11.752,156.7,156.7,0,0,1-25.975-18.031q-1.732-1.449-3.306-3.059t-2.991-3.381q.157,0-.472-.724t-.472-1.046a3.418,3.418,0,0,1,.945.483,5.183,5.183,0,0,0,.787.644l1.732,1.449.157.161.945.8,3.463,2.576q1.732,1.288,3.542,2.5t3.542,2.5a.45.45,0,0,0,.315.161l.315.322.787.483,1.574.966q.787.483,1.653.966A11.3,11.3,0,0,1-288.1-139.6l6.927,3.7q3.463,1.771,7.005,3.381t7.163,3.059a163.571,163.571,0,0,0,29.6,8.211,163.934,163.934,0,0,0,17.631,1.932q8.186.483,16.293.483t16.293-.322q8.186-.322,16.293-.563t16.293-.241a1.337,1.337,0,0,1,.866.322,8.652,8.652,0,0,1,.708.644q.945.8,1.732,1.61l1.574,1.61q.787.8,1.5,1.61T-146.734-112.392Zm35.577,29.783q.315,5.152.394,10.545a80.841,80.841,0,0,1-.551,10.706,62.756,62.756,0,0,1-2.125,10.384,38.248,38.248,0,0,1-4.329,9.579,31.089,31.089,0,0,1-5.352,6.2,17.8,17.8,0,0,1-7.241,3.944,13.55,13.55,0,0,1-5.667.4,37.319,37.319,0,0,1-5.51-1.207A57.387,57.387,0,0,1-148.7-34.15a22.675,22.675,0,0,1-6.533-3.7,24.705,24.705,0,0,1-6.061-7.728,46.7,46.7,0,0,1-3.542-9.338,61.7,61.7,0,0,1-1.1-21.09,47.2,47.2,0,0,1,1.968-9.257,41.878,41.878,0,0,1,3.936-8.855,26.867,26.867,0,0,1,6.061-7.084,22.127,22.127,0,0,1,8.343-4.266,14.122,14.122,0,0,1,4.487-.563,41.011,41.011,0,0,1,4.487.4q4.723.966,9.445,2.415,1.417.483,2.912.966a11.853,11.853,0,0,1,2.755,1.288,19.41,19.41,0,0,1,9.918,12.718.141.141,0,0,1,.157.161q0,1.288.079,2.737t.236,2.737M-131.779-42.2A33.691,33.691,0,0,0-125.8-53.791l-1.259-.483a3.94,3.94,0,0,0-.945-.483,1.968,1.968,0,0,1-.787-.483q-2.676-3.7-5.431-7.325t-5.589-7.164l-11.177-14.65a43.731,43.731,0,0,0-2.44,9.257,63.769,63.769,0,0,0-.708,9.418A68.448,68.448,0,0,0-152.559-51.3a31.453,31.453,0,0,0,5.982,12.96,13.738,13.738,0,0,0,3.463,3.542.141.141,0,0,1,.157.161l2.519-.644a18.912,18.912,0,0,0,4.8-2.9,25.2,25.2,0,0,0,3.857-4.025m-4.408-59.084a20.811,20.811,0,0,0-5.825,3.622,29.5,29.5,0,0,0-4.723,5.232l-.472.644a.957.957,0,0,1,.63.644l11.02,14.489q2.991,3.7,5.9,7.486t5.746,7.486a12.237,12.237,0,0,0,.236-1.207,10.1,10.1,0,0,0,.079-1.368,90.5,90.5,0,0,0,.551-13.6q-.236-6.842-.708-13.6a17.569,17.569,0,0,0-1.338-3.864,25.3,25.3,0,0,0-2.125-3.542,20.222,20.222,0,0,0-3.778-3.542A13.346,13.346,0,0,0-136.187-101.284Zm44.55-11.108q-.157-.161.551.724t.394.885h-19.993v69.065q0,4.83.157,9.5a28.619,28.619,0,0,1-.236,3.622,6.993,6.993,0,0,1-1.5,3.461,7.99,7.99,0,0,1-6.3,3.542q1.732.8,3.306,1.368t3.306,1.207a5.314,5.314,0,0,1,1.023.322q.866.322.708.644,0,.322-.787.161a6.5,6.5,0,0,0-1.1-.161,44.879,44.879,0,0,1-8.658-2.415l-8.658-3.381-.945-.322q-.945-.322-.787-.483a.141.141,0,0,1,.157-.161q0-.161.315-.161.787-.161,1.417-.241a3.825,3.825,0,0,0,1.259-.4,8.293,8.293,0,0,0,5.037-6.279,22.413,22.413,0,0,0,.236-4.186q-.079-2.093-.079-4.186v-70.514h-10.075a1.337,1.337,0,0,1-.866-.322,8.66,8.66,0,0,1-.708-.644l-3.306-3.22q-.787-.8-1.5-1.61a15.425,15.425,0,0,1-1.338-1.771q0,.161-.63-.724t-.315-.885H-99.35a1.511,1.511,0,0,1,.787.322,5.184,5.184,0,0,1,.787.644,22.579,22.579,0,0,1,3.148,3.22A24.425,24.425,0,0,1-91.636-112.392Zm24.558,0q-.157-.161.551.724t.394.885H-86.126v69.065q0,4.83.157,9.5a28.617,28.617,0,0,1-.236,3.622,6.993,6.993,0,0,1-1.5,3.461A7.99,7.99,0,0,1-94-21.593q1.732.8,3.306,1.368t3.306,1.207a5.314,5.314,0,0,1,1.023.322q.866.322.708.644,0,.322-.787.161a6.5,6.5,0,0,0-1.1-.161A44.879,44.879,0,0,1-96.2-20.466l-8.658-3.381-.945-.322q-.945-.322-.787-.483a.141.141,0,0,1,.157-.161q0-.161.315-.161.787-.161,1.417-.241a3.825,3.825,0,0,0,1.259-.4A8.293,8.293,0,0,0-98.405-31.9a22.412,22.412,0,0,0,.236-4.186q-.079-2.093-.079-4.186v-70.514h-10.075a1.337,1.337,0,0,1-.866-.322,8.654,8.654,0,0,1-.708-.644l-3.306-3.22q-.787-.8-1.5-1.61a15.42,15.42,0,0,1-1.338-1.771q0,.161-.63-.724t-.315-.885h42.189a1.511,1.511,0,0,1,.787.322,5.182,5.182,0,0,1,.787.644,22.578,22.578,0,0,1,3.148,3.22A24.422,24.422,0,0,1-67.078-112.392ZM35.4-271.774a43.975,43.975,0,0,1,8.58,18.031,48.075,48.075,0,0,1,.236,20.285,53.183,53.183,0,0,1-8.737,19.721,68.89,68.89,0,0,1-15.034,15.375A77.183,77.183,0,0,1-2.3-186.69a116.713,116.713,0,0,1-24.715,4.91,177.633,177.633,0,0,1-25.66.4q-12.987-.725-25.266-1.69-13.066-.966-26.211-1.449t-26.211.322a183.1,183.1,0,0,0-25.9,3.461,136.081,136.081,0,0,0-25.109,7.808,124.21,124.21,0,0,0-19.993,10.786,103.727,103.727,0,0,0-17.474,14.65,93.65,93.65,0,0,0-21.724,38.638,99.867,99.867,0,0,0-3.7,22.458,103.6,103.6,0,0,0,1.338,22.458,93.755,93.755,0,0,0,5.9,21.09A109.719,109.719,0,0,0-226.7-23.525a108.709,108.709,0,0,0,30.54,29.784,82.931,82.931,0,0,0,8.973,5.313q2.2,1.127,4.487,2.254a45.1,45.1,0,0,0,4.487,1.932l1.574.483q0,.161.315.241a2.109,2.109,0,0,0,.472.08,14.846,14.846,0,0,0,2.361.8.686.686,0,0,1,.315.081.686.686,0,0,0,.315.08l.945.322a6.068,6.068,0,0,0,1.259.483q.63.161-.472-.161l2.046.483h.472a4.9,4.9,0,0,0,1.417.322l1.1.161a23,23,0,0,0,2.361.483q1.1.161,2.361.322a111.047,111.047,0,0,0,24.243.563A126.139,126.139,0,0,0-113.2,16.079a119.4,119.4,0,0,0,22.2-8.694A95.949,95.949,0,0,0-71.171-6.138a70.849,70.849,0,0,0,8.265-8.211,65.117,65.117,0,0,0,6.848-9.66,54.825,54.825,0,0,0,4.8-10.786A77.528,77.528,0,0,0-48.5-46.386a123.573,123.573,0,0,0,.866-23.746q-.708-11.994-.708-23.907V-94.2h31.327a1.356,1.356,0,0,1,.787.4q.472.4.787.724l3.148,3.059L-9.3-86.634q-.157-.161.551.8t.394.966H-36.066l.63,17.548q.157,5.957,0,11.913a111.19,111.19,0,0,1-.945,11.833A71.373,71.373,0,0,1-38.9-32.058,55.514,55.514,0,0,1-43.622-21.11,65.4,65.4,0,0,1-58.892-2.757a113.252,113.252,0,0,1-19.678,13.2,126.226,126.226,0,0,1-22.669,9.1,118.389,118.389,0,0,1-24.086,4.427,113.914,113.914,0,0,1-27.391-.724,166.023,166.023,0,0,1-26.919-6.359A118.442,118.442,0,0,1-217.968-4.125,107.143,107.143,0,0,1-245.6-38.336a95.884,95.884,0,0,1-7.871-21.17,106.963,106.963,0,0,1-2.991-22.3,103.379,103.379,0,0,1,1.81-22.378,96.24,96.24,0,0,1,6.848-21.573A86.828,86.828,0,0,1-235.6-145.4a101.662,101.662,0,0,1,16.293-15.777,112.092,112.092,0,0,1,19.363-11.994,137.435,137.435,0,0,1,21.252-8.291,155.441,155.441,0,0,1,26.368-5.393,234.793,234.793,0,0,1,26.84-1.529q14.011,0,27.785,1.207t27.785,2.012a218.258,218.258,0,0,0,24.479.241,128.24,128.24,0,0,0,24.479-3.461,89.954,89.954,0,0,0,22.669-8.855,64.5,64.5,0,0,0,18.891-16.1A59.333,59.333,0,0,0,30.681-232.09a46.438,46.438,0,0,0,1.732-21.17,44.746,44.746,0,0,0-2.44-9.9,42.184,42.184,0,0,0-4.644-9.1,40.841,40.841,0,0,0-6.612-7.567,29.272,29.272,0,0,0-8.5-5.313,22.032,22.032,0,0,0-4.723-.483,33.355,33.355,0,0,0-5.667.161q-2.834.322-5.667.8a59.229,59.229,0,0,0-11.492,3.381A92.36,92.36,0,0,0-28.2-275.96,149.985,149.985,0,0,0-48.66-261.39q-9.6,8.13-19.678,15.536A128.855,128.855,0,0,1-88.645-233.7a55.162,55.162,0,0,1-22.669,5.554,56.769,56.769,0,0,1-13.853-1.368,108.971,108.971,0,0,1-13.381-3.944,49.214,49.214,0,0,1-9.445-4.83,31.151,31.151,0,0,1-7.714-7.245q-.315-.322,0-.322a1.372,1.372,0,0,1,.63.161,11.221,11.221,0,0,1,1.889.161,12.2,12.2,0,0,1,1.889.483q1.259.322,2.361.644l2.2.644a10.26,10.26,0,0,0,1.417.483,3.566,3.566,0,0,1,1.417.644,29.994,29.994,0,0,0,7.241,6.923q1.889,1.288,3.621,2.254l2.047.966a.141.141,0,0,0,.157.161h.472a.633.633,0,0,0,.472.161,15.25,15.25,0,0,0,1.968.241q1.181.081,2.125.08a39.435,39.435,0,0,0,5.038,0,35.684,35.684,0,0,0,4.88-.644,49.148,49.148,0,0,0,11.649-3.059,78.67,78.67,0,0,0,10.862-5.313A134.785,134.785,0,0,0-73.06-254.87q9.445-7.889,19.363-15.455A133.989,133.989,0,0,1-33.547-282.8,58.633,58.633,0,0,1-10.879-289a59.086,59.086,0,0,1,14.8.885,81.875,81.875,0,0,1,14.325,4.105,46.638,46.638,0,0,1,9.445,4.91,32.527,32.527,0,0,1,7.714,7.325M16.2-112.392q-.157-.161.551.724t.394.885H-73.69a1.511,1.511,0,0,1-.787-.322,5.182,5.182,0,0,1-.787-.644,22.578,22.578,0,0,1-3.148-3.22q-.787-.8-1.5-1.61t-1.5-1.771q.157.161-.551-.724t-.394-.885H8.484a1.511,1.511,0,0,1,.787.322,5.182,5.182,0,0,1,.787.644,22.579,22.579,0,0,1,3.148,3.22A24.425,24.425,0,0,1,16.2-112.392Zm-2.2,0q-.157-.161.551.724t.394.885H-5.054v69.065q0,4.83.157,9.5A28.619,28.619,0,0,1-5.133-28.6a6.993,6.993,0,0,1-1.5,3.461,7.99,7.99,0,0,1-6.3,3.542q1.732.8,3.306,1.368t3.306,1.207A5.315,5.315,0,0,1-5.29-18.7q.866.322.708.644,0,.322-.787.161a6.5,6.5,0,0,0-1.1-.161,44.88,44.88,0,0,1-8.658-2.415l-8.658-3.381-.945-.322q-.945-.322-.787-.483a.141.141,0,0,1,.157-.161q0-.161.315-.161.787-.161,1.417-.241a3.825,3.825,0,0,0,1.259-.4A8.293,8.293,0,0,0-17.333-31.9a22.416,22.416,0,0,0,.236-4.186q-.079-2.093-.079-4.186v-70.514H-27.25a1.337,1.337,0,0,1-.866-.322,8.657,8.657,0,0,1-.708-.644l-3.306-3.22q-.787-.8-1.5-1.61a15.424,15.424,0,0,1-1.338-1.771q0,.161-.63-.724t-.315-.885H6.28a1.511,1.511,0,0,1,.787.322,5.182,5.182,0,0,1,.787.644A22.579,22.579,0,0,1,11-115.773,24.425,24.425,0,0,1,13.994-112.392Zm24.558,0q-.157-.161.551.724t.394.885H19.5v69.065q0,4.83.157,9.5a28.621,28.621,0,0,1-.236,3.622,6.993,6.993,0,0,1-1.5,3.461,7.99,7.99,0,0,1-6.3,3.542q1.732.8,3.306,1.368t3.306,1.207a5.315,5.315,0,0,1,1.023.322q.866.322.708.644,0,.322-.787.161a6.5,6.5,0,0,0-1.1-.161,44.88,44.88,0,0,1-8.658-2.415L.771-23.847l-.945-.322q-.945-.322-.787-.483A.141.141,0,0,1-.8-24.813q0-.161.315-.161Q.3-25.135.928-25.215a3.825,3.825,0,0,0,1.259-.4A8.293,8.293,0,0,0,7.225-31.9a22.414,22.414,0,0,0,.236-4.186q-.079-2.093-.079-4.186v-70.514H-2.693a1.337,1.337,0,0,1-.866-.322,8.656,8.656,0,0,1-.708-.644l-3.306-3.22q-.787-.8-1.5-1.61a15.424,15.424,0,0,1-1.338-1.771q0,.161-.63-.724t-.315-.885H30.838a1.511,1.511,0,0,1,.787.322,5.182,5.182,0,0,1,.787.644,22.578,22.578,0,0,1,3.148,3.22A24.425,24.425,0,0,1,38.552-112.392ZM8.17-110.783a1.511,1.511,0,0,1-.787-.322,5.182,5.182,0,0,1-.787-.644,22.578,22.578,0,0,1-3.148-3.22q-.787-.8-1.5-1.69t-1.5-1.69l-.079-.08a5.23,5.23,0,0,1-.472-.563,4.247,4.247,0,0,1-.394-.644q-.157-.322,0-.322H56.97q4.25,0,8.5-.081t8.5.081a121.553,121.553,0,0,1,29.6,4.669,130.72,130.72,0,0,1,14.168,4.991,131.763,131.763,0,0,1,13.538,6.6A129.086,129.086,0,0,1,145.6-93.8a157.537,157.537,0,0,1,13.066,11.672l3.306,3.7q.315.322.866.966a6.16,6.16,0,0,1,.866,1.288q.157.483-.236.241a1.353,1.353,0,0,0-.551-.241q-.787-.644-1.5-1.288t-1.338-1.288a4.562,4.562,0,0,1-.787-.966h-.157l.157.161L157.721-81l-.787-.644h.315a.45.45,0,0,1-.315-.161L155.2-83.253,153.628-84.7q-.315-.161-.157,0a.141.141,0,0,1-.157-.161l-.787-.644-3.148-2.415q-5.352-3.864-11.334-7.406-3.148-1.771-6.3-3.22l-6.3-2.9a127.739,127.739,0,0,0-26.762-7.728.141.141,0,0,0,.157.161q-4.408-.8-8.737-1.207t-8.58-.563Z" transform="translate(309.54 289.127)" fill="#000"/>
      </g>
    </g>
  </g>
</svg>
